# xmcd
#
# Track frame offsets:
#	150
#	19639
#	38541
#	57677
#	77798
#	96143
#	117623
#	138291
#	160839
#	180337
#	197546
#
# Disc length: 2865 seconds
#
# Revision: 3
# Processed by: cddbd v1.5.2PL0 Copyright (c) Steve Scherf et al.
# Submitted via: EasyCDDAExtractor 15.3.0.1
#
DISCID=880b2f0b
DTITLE=Luis Enrique - Ciclos
DYEAR=2009
DGENRE=Latin
TTITLE0=Yo No Se Mañana (Salsa)
TTITLE1=Como Volver A Ser Feliz
TTITLE2=Sonrie
TTITLE3=Sombras Nada Mas
TTITLE4=Parte De Este Juego
TTITLE5=No Me Des La Espalda
TTITLE6=Autobiografia
TTITLE7=Cambia
TTITLE8=Inocencia
TTITLE9=Abre Tus Ojos
TTITLE10=Yo No Se Mañana (Pop)
EXTD=YEAR: 2010
EXTT0=
EXTT1=
EXTT2=
EXTT3=
EXTT4=
EXTT5=
EXTT6=
EXTT7=
EXTT8=
EXTT9=
EXTT10=
PLAYORDER=
